<?xml version="1.0" standalone="no"?>
<!DOCTYPE svg PUBLIC "-//W3C//DTD SVG 20010904//EN"
 "http://www.w3.org/TR/2001/REC-SVG-20010904/DTD/svg10.dtd">
<svg version="1.0" xmlns="http://www.w3.org/2000/svg"
 width="139.000000pt" height="139.000000pt" viewBox="0 0 139.000000 139.000000"
 preserveAspectRatio="xMidYMid meet">
<metadata>
Created by potrace 1.11, written by Peter Selinger 2001-2013
</metadata>
<g transform="translate(0.000000,139.000000) scale(0.100000,-0.100000)"
fill="#000000" stroke="none">
<path d="M120 1035 c0 -3 -11 -42 -24 -88 -53 -182 -96 -505 -96 -716 0 -116
2 -131 23 -161 12 -19 37 -43 55 -53 31 -18 36 -19 66 -4 47 22 62 64 76 212
20 227 55 423 95 535 l16 44 -33 25 c-58 44 -118 113 -141 163 -12 26 -25 48
-29 48 -5 0 -8 -2 -8 -5z"/>
<path d="M1251 681 c-25 -58 -104 -111 -167 -111 -29 0 -30 -9 -5 -108 17 -65
45 -245 67 -419 l5 -43 120 0 119 0 0 114 c0 110 -15 217 -56 386 -26 110 -57
210 -64 210 -4 0 -13 -13 -19 -29z"/>
<path d="M350 16 c0 -12 10 -16 38 -16 38 1 32 10 -15 24 -17 6 -23 3 -23 -8z"/>
</g>
</svg>
