<?xml version="1.0" encoding="utf-8"?>
<!-- Generator: Adobe Illustrator 20.0.0, SVG Export Plug-In . SVG Version: 6.00 Build 0)  -->
<svg version="1.1"
	 id="svg4496" inkscape:export-filename="E:\0. Inkscape Garden\InkGarden\tablet phone pc laptop apple family.png" inkscape:export-xdpi="79.689186" inkscape:export-ydpi="79.689186" inkscape:version="0.91 r13725" sodipodi:docname="tablet phone pc laptop apple family.svg" xmlns:cc="http://creativecommons.org/ns#" xmlns:dc="http://purl.org/dc/elements/1.1/" xmlns:inkscape="http://www.inkscape.org/namespaces/inkscape" xmlns:rdf="http://www.w3.org/1999/02/22-rdf-syntax-ns#" xmlns:sodipodi="http://sodipodi.sourceforge.net/DTD/sodipodi-0.dtd" xmlns:svg="http://www.w3.org/2000/svg"
	 xmlns="http://www.w3.org/2000/svg" xmlns:xlink="http://www.w3.org/1999/xlink" x="0px" y="0px" viewBox="0 0 644.5 426.3"
	 style="enable-background:new 0 0 644.5 426.3;" xml:space="preserve">
<style type="text/css">
	.st0{fill:#18B261;}
	.st1{fill:#026833;}
	.st2{fill:#00E676;}
	.st3{fill:#333333;}
	.st4{fill:#4D4D4D;}
	.st5{fill:#FFFFFF;}
	.st6{fill:#F9A825;}
	.st7{fill:#D18B24;}
	.st8{fill:#B3B3B3;}
	.st9{fill:#D3902F;}
	.st10{fill:#039BE5;}
	.st11{fill:#CCCCCC;}
	.st12{fill:#F06292;}
</style>
<sodipodi:namedview  bordercolor="#666666" borderopacity="1.0" fit-margin-bottom="0" fit-margin-left="0" fit-margin-right="0" fit-margin-top="0" id="base" inkscape:current-layer="layer1" inkscape:cx="384.68859" inkscape:cy="327.21667" inkscape:document-units="px" inkscape:pageopacity="0.0" inkscape:pageshadow="2" inkscape:window-height="716" inkscape:window-maximized="1" inkscape:window-width="1366" inkscape:window-x="-8" inkscape:window-y="-8" inkscape:zoom="0.7" pagecolor="#ffffff" showgrid="false">
	</sodipodi:namedview>
<g id="layer1" transform="translate(63.53162,-39.524864)" inkscape:groupmode="layer" inkscape:label="Layer 1">
	<g id="g5492">
		<g id="g5476" transform="translate(154.77592,-367.24438)">
			<g id="g4464" transform="matrix(0.54528651,0,0,0.54528651,-1613.7187,-23.611243)">
				<path id="path4334" inkscape:connector-curvature="0" sodipodi:nodetypes="ccccc" class="st0" d="M3006.9,1237.3l109,2.5l9,85.3
					h-127.3L3006.9,1237.3z"/>
				<path id="path4336" inkscape:connector-curvature="0" class="st1" d="M3006.9,1237.3l-2.8,26.5h114.3l-2.5-24.1L3006.9,1237.3z"
					/>
				<path id="rect4338" inkscape:export-xdpi="79.689186" inkscape:export-ydpi="79.689186" class="st2" d="M2837.1,1257.7h448
					c12.4,0,22.4-10,22.4-22.4V956.5c0-12.4-10-22.4-22.4-22.4h-448c-12.4,0-22.4,10-22.4,22.4v278.7
					C2814.7,1247.6,2824.7,1257.7,2837.1,1257.7z"/>
				
					<path id="path4340" inkscape:connector-curvature="0" inkscape:export-xdpi="79.689186" inkscape:export-ydpi="79.689186" sodipodi:nodetypes="cccccccccc" class="st3" d="
					M2814.6,927.2v285.3h493V927.2H2814.6z M2826.2,942h467.6l-62.7,235l-350.4-23.4L2826.2,942z"/>
				<path id="rect4342" class="st3" d="M2840.1,906.4h442c14.1,0,25.5,11.4,25.5,25.5v84.8c0,14.1-11.4,25.5-25.5,25.5h-442
					c-14.1,0-25.5-11.4-25.5-25.5v-84.8C2814.6,917.8,2826.1,906.4,2840.1,906.4z"/>
				<path id="rect4346" class="st2" d="M2964.5,1312.1h193.3c2.1,0,3.7,1.7,3.7,3.7v5.4c0,2.1-1.7,3.7-3.7,3.7h-193.3
					c-2.1,0-3.7-1.7-3.7-3.7v-5.4C2960.7,1313.7,2962.4,1312.1,2964.5,1312.1z"/>
				<circle id="circle4348" class="st3" cx="3061.1" cy="1235.7" r="12.7"/>
				
					<rect id="rect4344" x="2834.6" y="928" inkscape:export-xdpi="79.689186" inkscape:export-ydpi="79.689186" class="st4" width="453.1" height="261.1">
				</rect>
				
					<rect id="rect4408" x="2838.1" y="931.2" inkscape:export-xdpi="79.689186" inkscape:export-ydpi="79.689186" class="st5" width="449.6" height="254">
				</rect>
			</g>
		</g>
		<g id="g4476" transform="matrix(0.47918443,0,0,0.47918443,-805.16898,-263.3065)">
			<path id="rect4374" class="st6" d="M2311.7,997.1h443.8c7.9,0,14.3,6.4,14.3,14.3v262.2c0,7.9-6.4,14.3-14.3,14.3h-443.8
				c-7.9,0-14.3-6.4-14.3-14.3v-262.2C2297.4,1003.5,2303.8,997.1,2311.7,997.1z"/>
			<rect id="rect4376" x="2297.4" y="1275.5" class="st7" width="472.3" height="2.9"/>
			<path id="path4378" inkscape:connector-curvature="0" sodipodi:nodetypes="csssscc" class="st6" d="M2250.5,1278.1
				c-2.6,4.6-1.5,7.3,0,9.8c3.2,5.6,57.7,11.7,67.6,11.7H2749c9.9,0,64.2-6.3,67.8-11.7c2.4-3.7,1-6.7,0-9.8H2250.5z"/>
			<rect id="rect4380" x="2314.2" y="1012.7" class="st8" width="438.8" height="244.4"/>
			<path id="path4382" inkscape:connector-curvature="0" class="st9" d="M2477.5,1278.4v4.1c0,2.7,1.6,4.9,3.6,4.9h105.2
				c2,0,3.6-2.2,3.6-4.9v-4.1H2477.5z"/>
			<path id="path4384" inkscape:connector-curvature="0" sodipodi:nodetypes="csscc" class="st9" d="M2251.1,1289.1
				c6.1,5.9,19.3,10.6,28.6,10.6h512.7c9.4,0,17.7-4.6,23.8-10.6H2251.1z"/>
			<path id="rect4386" class="st5" d="M2532.5,1003.2h2c1.1,0,2,0.9,2,2v0.5c0,1.1-0.9,2-2,2h-2c-1.1,0-2-0.9-2-2v-0.5
				C2530.6,1004.1,2531.4,1003.2,2532.5,1003.2z"/>
			<rect id="rect4388" x="2315.5" y="1014.1" class="st5" width="437.4" height="243"/>
		</g>
		<g id="g4487" transform="matrix(0.54528651,0,0,0.54528651,-1415.7288,-365.04281)">
			<path id="rect4350" class="st10" d="M2624.7,1055.2h165.4c7.3,0,13.2,5.9,13.2,13.2V1330c0,7.3-5.9,13.2-13.2,13.2h-165.4
				c-7.3,0-13.2-5.9-13.2-13.2v-261.6C2611.5,1061.1,2617.4,1055.2,2624.7,1055.2z"/>
			<rect id="rect4352" x="2626.2" y="1075.6" class="st11" width="162.3" height="242.2"/>
			<path id="rect4354" class="st5" d="M2672.4,1062.9h1.5c1.1,0,2,0.9,2,2v0.5c0,1.1-0.9,2-2,2h-1.5c-1.1,0-2-0.9-2-2v-0.5
				C2670.4,1063.8,2671.3,1062.9,2672.4,1062.9z"/>
			<path id="rect4356" class="st5" d="M2687.4,1063.3h39.5c0.5,0,0.8,0.4,0.8,0.8v2.3c0,0.5-0.4,0.8-0.8,0.8h-39.5
				c-0.5,0-0.8-0.4-0.8-0.8v-2.3C2686.6,1063.7,2686.9,1063.3,2687.4,1063.3z"/>
			<path id="path4358" inkscape:connector-curvature="0" class="st5" d="M2707.4,1322.9c-4.5,0-8.1,3.6-8.1,8.1c0,0,0,0,0,0
				c0,4.5,3.6,8.1,8.1,8.1c0,0,0,0,0,0c4.5,0,8.1-3.6,8.1-8.1c0,0,0,0,0,0C2715.4,1326.5,2711.8,1322.9,2707.4,1322.9
				C2707.4,1322.9,2707.4,1322.9,2707.4,1322.9z M2707.4,1325.2c3.2,0,5.8,2.6,5.8,5.8c0,3.2-2.6,5.8-5.8,5.8
				c-3.2,0-5.8-2.6-5.8-5.8C2701.6,1327.8,2704.2,1325.2,2707.4,1325.2z"/>
			<rect id="rect4360" x="2627.3" y="1076.6" class="st5" width="161.2" height="241.2"/>
		</g>
		<g id="g4455" transform="matrix(0.54528651,0,0,0.54528651,-1674.3278,-334.73823)">
			<path id="rect4362" class="st12" d="M3242.6,1168.6h85.2c4.6,0,8.4,3.7,8.4,8.4v165.7c0,4.6-3.7,8.4-8.4,8.4h-85.2
				c-4.6,0-8.4-3.7-8.4-8.4v-165.7C3234.2,1172.3,3238,1168.6,3242.6,1168.6z"/>
			<rect id="rect4364" x="3237.4" y="1185.3" class="st11" width="96" height="145.9"/>
			<path id="rect4366" class="st5" d="M3266.8,1174.3h0.4c0.7,0,1.3,0.6,1.3,1.3v0.3c0,0.7-0.6,1.3-1.3,1.3h-0.4
				c-0.7,0-1.3-0.6-1.3-1.3v-0.3C3265.5,1174.8,3266.1,1174.3,3266.8,1174.3z"/>
			<path id="rect4368" class="st5" d="M3274.6,1174.5h20.8c0.3,0,0.5,0.2,0.5,0.5v1.5c0,0.3-0.2,0.5-0.5,0.5h-20.8
				c-0.3,0-0.5-0.2-0.5-0.5v-1.5C3274.1,1174.8,3274.3,1174.5,3274.6,1174.5z"/>
			<path id="path4370" inkscape:connector-curvature="0" class="st5" d="M3285.2,1335c-3.7,0-6.7,3-6.7,6.7c0,0,0,0,0,0
				c0,3.7,3,6.7,6.7,6.7c0,0,0,0,0,0c3.7,0,6.7-3,6.7-6.7c0,0,0,0,0,0C3291.9,1338,3288.9,1335,3285.2,1335
				C3285.2,1335,3285.2,1335,3285.2,1335z M3285.2,1336.9c2.7,0,4.8,2.2,4.8,4.8c0,2.7-2.2,4.8-4.8,4.8c-2.7,0-4.8-2.2-4.8-4.8
				C3280.3,1339.1,3282.5,1336.9,3285.2,1336.9z"/>
			<rect id="rect4372" x="3239.2" y="1187" class="st5" width="94.1" height="144.1"/>
		</g>
	</g>
</g>
</svg>
