<?xml version="1.0" encoding="utf-8"?>
<!-- Generator: Adobe Illustrator 20.0.0, SVG Export Plug-In . SVG Version: 6.00 Build 0)  -->
<svg version="1.1"
	 id="svg5633" inkscape:export-filename="E:\0. Inkscape Garden\InkGarden\121. love.png" inkscape:export-xdpi="99.6838" inkscape:export-ydpi="99.6838" inkscape:version="0.91 r13725" sodipodi:docname="121. love.svg" xmlns:cc="http://creativecommons.org/ns#" xmlns:dc="http://purl.org/dc/elements/1.1/" xmlns:inkscape="http://www.inkscape.org/namespaces/inkscape" xmlns:rdf="http://www.w3.org/1999/02/22-rdf-syntax-ns#" xmlns:sodipodi="http://sodipodi.sourceforge.net/DTD/sodipodi-0.dtd" xmlns:svg="http://www.w3.org/2000/svg"
	 xmlns="http://www.w3.org/2000/svg" xmlns:xlink="http://www.w3.org/1999/xlink" x="0px" y="0px" viewBox="0 0 977.8 564.1"
	 style="enable-background:new 0 0 977.8 564.1;" xml:space="preserve">
<style type="text/css">
	.st0{fill:#039BE5;}
	.st1{fill:#F9A825;}
	.st2{fill:#F06292;}
	.st3{fill:#4CAF50;}
	.st4{fill:#FFFFFF;}
	.st5{fill:#00E676;}
</style>
<sodipodi:namedview  bordercolor="#666666" borderopacity="1.0" fit-margin-bottom="0" fit-margin-left="0" fit-margin-right="0" fit-margin-top="0" id="base" inkscape:current-layer="layer1" inkscape:cx="648.54556" inkscape:cy="468.90512" inkscape:document-units="px" inkscape:pageopacity="0.0" inkscape:pageshadow="2" inkscape:window-height="716" inkscape:window-maximized="1" inkscape:window-width="1366" inkscape:window-x="-8" inkscape:window-y="-8" inkscape:zoom="0.49497475" pagecolor="#ffffff" showgrid="false">
	</sodipodi:namedview>
<g id="layer1" transform="translate(141.42136,87.089867)" inkscape:groupmode="layer" inkscape:label="Layer 1">
	<path id="path6181" inkscape:connector-curvature="0" class="st0" d="M-1.9,105.8v178.3h122.3L-1.9,105.8z"/>
	<path id="path13544" inkscape:connector-curvature="0" class="st1" d="M285.7,106.5l202,0.8L387.1,283L285.7,106.5z"/>
	<circle id="path6183" class="st2" cx="201" cy="195.2" r="88.9"/>
	<rect id="rect11151" x="519.9" y="106.6" class="st3" width="177" height="177"/>
	<path id="path41-4" inkscape:connector-curvature="0" class="st4" d="M195.8,186.7c-2.1-26.6,14.3-39,31.3-31.3
		c19.4,8.8,17.5,35.8,2.4,58.4c-5.8,8.7-12.4,21.9-18.1,37.4c-4.3-12.1-16.6-19.6-33.4-24.6c-21.3-6-30.4-17.5-21.7-34
		C164.7,176.5,181.5,175.4,195.8,186.7L195.8,186.7z"/>
	<path id="rect13482" inkscape:connector-curvature="0" class="st5" d="M519.9,106.6h177v177h-177V106.6z"/>
	<g id="g13630">
	</g>
</g>
</svg>
